<?xml version="1.0" encoding="utf-8"?>
<!-- Generator: Adobe Illustrator 19.0.0, SVG Export Plug-In . SVG Version: 6.00 Build 0)  -->
<svg xmlns="http://www.w3.org/2000/svg" xmlns:xlink="http://www.w3.org/1999/xlink" viewBox="-73.8 484 103.8 34">
<g>
	<path id="Fillsvg" d="M-27.6,513.4c-1.2,0-2.1,1-2.1,2.1c0,1.2,0.9,2.2,2.1,2.2c1.2,0,2.1-1,2.1-2.2
		C-25.5,514.4-26.4,513.4-27.6,513.4z"/>
	<path id="Fillsvg" d="M-32.7,513.4c-1.2,0-2.1,1-2.1,2.1c0,1.2,0.9,2.2,2.1,2.2c1.2,0,2.1-1,2.1-2.2
		C-30.6,514.4-31.5,513.4-32.7,513.4z"/>
	<path id="Fillsvg" d="M-5.2,492.8c1.2,0,2.1-1,2.1-2.2c0-1.1-0.9-2.1-2.1-2.1s-2.1,1-2.1,2.1C-7.3,491.8-6.4,492.8-5.2,492.8z"/>
	<path id="Fillsvg" d="M-2.6,488.6c1.2,0,2.1-1,2.1-2.2c0-1.1-0.9-2.1-2.1-2.1s-2.1,1-2.1,2.1C-4.8,487.6-3.8,488.6-2.6,488.6z"/>
	<path id="Fillsvg" d="M-0.1,488.5c-1.2,0-2.1,1-2.1,2.1c0,1.2,0.9,2.2,2.1,2.2c1.2,0,2.1-1,2.1-2.2C2,489.5,1.1,488.5-0.1,488.5z"/>
	<path d="M-3.7,501.9c-0.1,3.5-0.9,4.3-4,4.3h-0.5h-0.2h-5h-0.2h-5h-0.2h-5h-0.2H-28v-11.1h-4.4v11.1h-24.8l0,0l0,0l0,0l0,0l0,0l0,0
		l0,0l0,0l0,0l0,0l0,0l0,0l0,0l0,0l0,0l0,0l0,0h-5.2v-11.1h-4.4V510c0,2.4-1,3.8-2.6,3.8c-0.7,0-1.2-0.1-1.8-0.4l-1.5,3.7
		c1.2,0.5,2.4,0.8,3.4,0.8c4.1,0,6.6-2.7,6.9-7.4h14.8l0,0l0,0l0,0l0,0l0,0l0,0l0,0l0,0l0,0l0,0l0,0l0,0l0,0l0,0l0,0l0,0l0,0l0,0
		l0,0l0,0l0,0l0,0l0,0h39.1h0.2h0.5c6.6,0,8.3-1.7,8.4-8.7v-6.8h-4.4V501.9z"/>
	<rect x="7.8" y="491.6" width="4.4" height="13.4"/>
	<path d="M7.4,490.1c0.3-0.1,1-0.4,1.2-0.4h4v-2.1h-3c0-0.2-0.1-0.3-0.1-0.4c0-0.7,0.4-1.1,1-1.1c0.3,0,0.8,0.2,1.2,0.4l0.7-2.1
		c-0.7-0.3-1.3-0.4-1.9-0.4c-1.9,0-3.1,1.2-3.1,3.2c0,0.2,0,0.4,0.1,0.6c-0.4,0.1-0.8,0.3-1.2,0.5L7.4,490.1z"/>
	<path d="M15.3,504c-0.1,2-0.3,2.3-2,2.3H4.5v4.4h8.7c4.9,0,6.3-1.5,6.4-6.6v-16.6h-4.4V504z"/>
	<rect x="25" y="487.4" width="4.4" height="23.2"/>
</g>
</svg>
